<svg xmlns="http://www.w3.org/2000/svg" width="1771" height="962" viewBox="0 0 1771 962" fill="none"><path d="M1504.99 127.819C1461.15 151.986 1413.96 178.579 1369.91 202.261C1338.64 219.063 1305.65 206.847 1298.02 176.682C1293.17 157.631 1301.42 136.948 1321.26 123.982C1411.8 64.9313 1502.52 6.14527 1593.45 -52.2439C1617.18 -67.4586 1642.71 -59.741 1656.6 -33.8981C1672.35 -4.70348 1679.45 27.7104 1689.99 58.8455C1716.4 136.815 1742.78 214.785 1768.79 292.887C1775.67 313.57 1765.66 328.829 1749.74 340.648C1725.05 359.391 1689.81 345.72 1681.34 316.657C1666.7 277.143 1651.66 237.806 1635.43 194.896C1622.91 225.854 1611.62 253.594 1600.37 281.377C1532.06 450.15 1427.85 593.565 1293.35 715.415C1026.67 955.013 625.002 1141.38 261.569 1121.76C129.091 1118.23 -24.2026 1034.44 3.66898 880.616C45.2999 655.174 409.659 436.787 606.7 346.293C674.659 315.687 743.941 288.786 814.194 264.134C843.917 253.726 867.203 264.663 876.772 292.887C885.284 318.025 872.186 338.84 842.198 349.336C675.321 407.857 517 483.534 374.114 588.538C306.464 638.945 195.595 730.321 190.214 819.889C187.921 865.445 211.868 897.991 257.291 912.897C384.786 953.823 620.504 882.997 743.104 831.664C1066.1 695.702 1362.1 458.838 1503.31 131.7" fill="#F5F6F7"></path></svg>